<?xml version="1.0" encoding="utf-8" standalone="no"?>
<!DOCTYPE svg PUBLIC "-//W3C//DTD SVG 1.1//EN"
  "http://www.w3.org/Graphics/SVG/1.1/DTD/svg11.dtd">
<svg xmlns:xlink="http://www.w3.org/1999/xlink" width="560.612578pt" height="230.890984pt" viewBox="0 0 560.612578 230.890984" xmlns="http://www.w3.org/2000/svg" version="1.1">
 <metadata>
  <rdf:RDF xmlns:dc="http://purl.org/dc/elements/1.1/" xmlns:cc="http://creativecommons.org/ns#" xmlns:rdf="http://www.w3.org/1999/02/22-rdf-syntax-ns#">
   <cc:Work>
    <dc:type rdf:resource="http://purl.org/dc/dcmitype/StillImage"/>
    <dc:date>2026-10-06T19:08:53.443691</dc:date>
    <dc:format>image/svg+xml</dc:format>
    <dc:creator>
     <cc:Agent>
      <dc:title>Matplotlib v3.10.9, https://matplotlib.org/</dc:title>
     </cc:Agent>
    </dc:creator>
   </cc:Work>
  </rdf:RDF>
 </metadata>
 <defs>
  <style type="text/css">*{stroke-linejoin: round; stroke-linecap: butt}</style>
 </defs>
 <g id="figure_1">
  <g id="patch_1">
   <path d="M 0 230.890984 
L 560.612578 230.890984 
L 560.612578 -0 
L 0 -0 
z
" style="fill: #fcfcfb"/>
  </g>
  <g id="axes_1">
   <g id="patch_2">
    <path d="M 151.652578 198.410359 
L 553.412578 198.410359 
L 553.412578 43.178359 
L 151.652578 43.178359 
z
" style="fill: #fcfcfb"/>
   </g>
   <g id="matplotlib.axis_1">
    <g id="xtick_1">
     <g id="line2d_1">
      <path d="M 193.943104 198.410359 
L 193.943104 43.178359 
" clip-path="url(#pa7e038e322)" style="fill: none; stroke: #e3e2de; stroke-width: 0.8; stroke-linecap: square"/>
     </g>
     <g id="line2d_2"/>
     <g id="text_1">
      <text style="font-size: 9px; font-family: 'DejaVu Sans'; text-anchor: middle; fill: #52514e" x="193.943104" y="208.748953" transform="rotate(-0 193.943104 208.748953)">1</text>
     </g>
    </g>
    <g id="xtick_2">
     <g id="line2d_3">
      <path d="M 299.66942 198.410359 
L 299.66942 43.178359 
" clip-path="url(#pa7e038e322)" style="fill: none; stroke: #e3e2de; stroke-width: 0.8; stroke-linecap: square"/>
     </g>
     <g id="line2d_4"/>
     <g id="text_2">
      <text style="font-size: 9px; font-family: 'DejaVu Sans'; text-anchor: middle; fill: #52514e" x="299.66942" y="208.748953" transform="rotate(-0 299.66942 208.748953)">2</text>
     </g>
    </g>
    <g id="xtick_3">
     <g id="line2d_5">
      <path d="M 405.395736 198.410359 
L 405.395736 43.178359 
" clip-path="url(#pa7e038e322)" style="fill: none; stroke: #e3e2de; stroke-width: 0.8; stroke-linecap: square"/>
     </g>
     <g id="line2d_6"/>
     <g id="text_3">
      <text style="font-size: 9px; font-family: 'DejaVu Sans'; text-anchor: middle; fill: #52514e" x="405.395736" y="208.748953" transform="rotate(-0 405.395736 208.748953)">3</text>
     </g>
    </g>
    <g id="xtick_4">
     <g id="line2d_7">
      <path d="M 511.122052 198.410359 
L 511.122052 43.178359 
" clip-path="url(#pa7e038e322)" style="fill: none; stroke: #e3e2de; stroke-width: 0.8; stroke-linecap: square"/>
     </g>
     <g id="line2d_8"/>
     <g id="text_4">
      <text style="font-size: 9px; font-family: 'DejaVu Sans'; text-anchor: middle; fill: #52514e" x="511.122052" y="208.748953" transform="rotate(-0 511.122052 208.748953)">4</text>
     </g>
    </g>
    <g id="text_5">
     <text style="font-size: 9px; font-family: 'DejaVu Sans'; text-anchor: middle; fill: #52514e" x="352.532578" y="221.819266" transform="rotate(-0 352.532578 221.819266)">Posición promedio asignada  ·  1 = más importante</text>
    </g>
   </g>
   <g id="matplotlib.axis_2">
    <g id="ytick_1">
     <g id="line2d_9"/>
     <g id="text_6">
      <text style="font-size: 8.5px; font-family: 'DejaVu Sans'; text-anchor: end; fill: #52514e" x="148.152578" y="65.811695" transform="rotate(-0 148.152578 65.811695)">Reservas y disponibilidad</text>
     </g>
    </g>
    <g id="ytick_2">
     <g id="line2d_10"/>
     <g id="text_7">
      <text style="font-size: 8.5px; font-family: 'DejaVu Sans'; text-anchor: end; fill: #52514e" x="148.152578" y="104.619695" transform="rotate(-0 148.152578 104.619695)">Inventario de almacén</text>
     </g>
    </g>
    <g id="ytick_3">
     <g id="line2d_11"/>
     <g id="text_8">
      <text style="font-size: 8.5px; font-family: 'DejaVu Sans'; text-anchor: end; fill: #52514e" x="148.152578" y="143.427695" transform="rotate(-0 148.152578 143.427695)">Control de acceso a habitaciones</text>
     </g>
    </g>
    <g id="ytick_4">
     <g id="line2d_12"/>
     <g id="text_9">
      <text style="font-size: 8.5px; font-family: 'DejaVu Sans'; text-anchor: end; fill: #52514e" x="148.152578" y="182.235695" transform="rotate(-0 148.152578 182.235695)">Reportes del negocio</text>
     </g>
    </g>
   </g>
   <g id="line2d_13">
    <path d="M 228.832789 62.582359 
L 193.943104 62.582359 
" clip-path="url(#pa7e038e322)" style="fill: none; stroke: #e3e2de; stroke-width: 2; stroke-linecap: round"/>
   </g>
   <g id="line2d_14">
    <path d="M 405.395736 101.390359 
L 352.532578 101.390359 
" clip-path="url(#pa7e038e322)" style="fill: none; stroke: #e3e2de; stroke-width: 2; stroke-linecap: round"/>
   </g>
   <g id="line2d_15">
    <path d="M 299.66942 140.198359 
L 511.122052 140.198359 
" clip-path="url(#pa7e038e322)" style="fill: none; stroke: #e3e2de; stroke-width: 2; stroke-linecap: round"/>
   </g>
   <g id="line2d_16">
    <path d="M 476.232368 179.006359 
L 352.532578 179.006359 
" clip-path="url(#pa7e038e322)" style="fill: none; stroke: #e3e2de; stroke-width: 2; stroke-linecap: round"/>
   </g>
   <g id="patch_3">
    <path d="M 151.652578 198.410359 
L 553.412578 198.410359 
" style="fill: none; stroke: #e3e2de; stroke-width: 0.8; stroke-linejoin: miter; stroke-linecap: square"/>
   </g>
   <g id="PathCollection_1">
    <defs>
     <path id="m3fcdbd1e3f" d="M 0 5.244044 
C 1.390737 5.244044 2.7247 4.691499 3.708099 3.708099 
C 4.691499 2.7247 5.244044 1.390737 5.244044 0 
C 5.244044 -1.390737 4.691499 -2.7247 3.708099 -3.708099 
C 2.7247 -4.691499 1.390737 -5.244044 0 -5.244044 
C -1.390737 -5.244044 -2.7247 -4.691499 -3.708099 -3.708099 
C -4.691499 -2.7247 -5.244044 -1.390737 -5.244044 0 
C -5.244044 1.390737 -4.691499 2.7247 -3.708099 3.708099 
C -2.7247 4.691499 -1.390737 5.244044 0 5.244044 
z
" style="stroke: #fcfcfb; stroke-width: 2"/>
    </defs>
    <g clip-path="url(#pa7e038e322)">
     <use xlink:href="#m3fcdbd1e3f" x="228.832789" y="62.582359" style="fill: #2a78d6; stroke: #fcfcfb; stroke-width: 2"/>
     <use xlink:href="#m3fcdbd1e3f" x="405.395736" y="101.390359" style="fill: #2a78d6; stroke: #fcfcfb; stroke-width: 2"/>
     <use xlink:href="#m3fcdbd1e3f" x="299.66942" y="140.198359" style="fill: #2a78d6; stroke: #fcfcfb; stroke-width: 2"/>
     <use xlink:href="#m3fcdbd1e3f" x="476.232368" y="179.006359" style="fill: #2a78d6; stroke: #fcfcfb; stroke-width: 2"/>
    </g>
   </g>
   <g id="PathCollection_2">
    <defs>
     <path id="mcb3f902f91" d="M 0 5.244044 
C 1.390737 5.244044 2.7247 4.691499 3.708099 3.708099 
C 4.691499 2.7247 5.244044 1.390737 5.244044 0 
C 5.244044 -1.390737 4.691499 -2.7247 3.708099 -3.708099 
C 2.7247 -4.691499 1.390737 -5.244044 0 -5.244044 
C -1.390737 -5.244044 -2.7247 -4.691499 -3.708099 -3.708099 
C -4.691499 -2.7247 -5.244044 -1.390737 -5.244044 0 
C -5.244044 1.390737 -4.691499 2.7247 -3.708099 3.708099 
C -2.7247 4.691499 -1.390737 5.244044 0 5.244044 
z
" style="stroke: #fcfcfb; stroke-width: 2"/>
    </defs>
    <g clip-path="url(#pa7e038e322)">
     <use xlink:href="#mcb3f902f91" x="193.943104" y="62.582359" style="fill: #eb6834; stroke: #fcfcfb; stroke-width: 2"/>
     <use xlink:href="#mcb3f902f91" x="352.532578" y="101.390359" style="fill: #eb6834; stroke: #fcfcfb; stroke-width: 2"/>
     <use xlink:href="#mcb3f902f91" x="511.122052" y="140.198359" style="fill: #eb6834; stroke: #fcfcfb; stroke-width: 2"/>
     <use xlink:href="#mcb3f902f91" x="352.532578" y="179.006359" style="fill: #eb6834; stroke: #fcfcfb; stroke-width: 2"/>
    </g>
   </g>
   <g id="text_10">
    <text style="font-size: 10.5px; font-family: 'DejaVu Sans'; text-anchor: start; fill: #0b0b0b" x="39.159778" y="15.178359" transform="rotate(-0 39.159778 15.178359)">Prioridad asignada a cada capacidad en las entrevistas complementarias</text>
   </g>
   <g id="legend_1">
    <g id="PathCollection_3">
     <g>
      <use xlink:href="#m3fcdbd1e3f" x="55.309778" y="28.424735" style="fill: #2a78d6; stroke: #fcfcfb; stroke-width: 2"/>
     </g>
    </g>
    <g id="text_11">
     <text style="font-size: 8.5px; font-family: 'DejaVu Sans'; text-anchor: start; fill: #52514e" x="66.359778" y="30.655985" transform="rotate(-0 66.359778 30.655985)">Segmento 1 · F1 a F3 (n = 3)</text>
    </g>
    <g id="PathCollection_4">
     <g>
      <use xlink:href="#mcb3f902f91" x="213.686028" y="28.424735" style="fill: #eb6834; stroke: #fcfcfb; stroke-width: 2"/>
     </g>
    </g>
    <g id="text_12">
     <text style="font-size: 8.5px; font-family: 'DejaVu Sans'; text-anchor: start; fill: #52514e" x="224.736028" y="30.655985" transform="rotate(-0 224.736028 30.655985)">Segmento 2 · F4 y F5 (n = 2)</text>
    </g>
   </g>
  </g>
 </g>
 <defs>
  <clipPath id="pa7e038e322">
   <rect x="151.652578" y="43.178359" width="401.76" height="155.232"/>
  </clipPath>
 </defs>
</svg>
